HIERARCHY
ROOT Hips
{
	OFFSET	0.00	0.00	0.00
	CHANNELS 6 Xposition Yposition Zposition Zrotation Xrotation Yrotation
	JOINT LeftUpLeg
	{
		OFFSET	 0.126116	-0.014019	-0.065224
		CHANNELS 3 Zrotation Xrotation Yrotation
		JOINT LeftLeg
		{
			OFFSET	 0.000000	 0.000000	 0.569914
			CHANNELS 3 Zrotation Xrotation Yrotation
			JOINT LeftFoot
			{
				OFFSET	 0.000000	 0.000000	 0.544423
				CHANNELS 3 Zrotation Xrotation Yrotation
				JOINT LeftToeBase
				{
					OFFSET	 0.000000	 0.000000	 0.207117
					CHANNELS 3 Zrotation Xrotation Yrotation
					End Site
					{
						OFFSET	 0.000000	 0.000000	 0.207117
					}
				}
			}
		}
	}
	JOINT RightUpLeg
	{
		OFFSET	-0.124023	-0.008373	-0.065224
		CHANNELS 3 Zrotation Xrotation Yrotation
		JOINT RightLeg
		{
			OFFSET	 0.000000	 0.000000	 0.570047
			CHANNELS 3 Zrotation Xrotation Yrotation
			JOINT RightFoot
			{
				OFFSET	 0.000000	 0.000000	 0.544354
				CHANNELS 3 Zrotation Xrotation Yrotation
				JOINT RightToeBase
				{
					OFFSET	 0.000000	 0.000000	 0.207540
					CHANNELS 3 Zrotation Xrotation Yrotation
					End Site
					{
						OFFSET	 0.000000	 0.000000	 0.207540
					}
				}
			}
		}
	}
	JOINT Spine
	{
		OFFSET	 0.000184	-0.007763	 0.117403
		CHANNELS 3 Zrotation Xrotation Yrotation
		JOINT Spine1
		{
			OFFSET	 0.000000	 0.000000	 0.137269
			CHANNELS 3 Zrotation Xrotation Yrotation
			JOINT Spine2
			{
				OFFSET	 0.000000	 0.000000	 0.156879
				CHANNELS 3 Zrotation Xrotation Yrotation
				JOINT LeftShoulder
				{
					OFFSET	 0.080501	-0.002496	 0.160144
					CHANNELS 3 Zrotation Xrotation Yrotation
					JOINT LeftArm
					{
						OFFSET	 0.000000	 0.000000	 0.164363
						CHANNELS 3 Zrotation Xrotation Yrotation
						JOINT LeftForeArm
						{
							OFFSET	 0.000000	 0.000000	 0.364576
							CHANNELS 3 Zrotation Xrotation Yrotation
							JOINT LeftHand
							{
								OFFSET	 0.000000	 0.000000	 0.360812
								CHANNELS 3 Zrotation Xrotation Yrotation
								JOINT LeftHandIndex1
								{
									OFFSET	 0.000000	 0.000000	 0.086006
									CHANNELS 3 Zrotation Xrotation Yrotation
									JOINT LeftHandIndex2
									{
										OFFSET	 0.000000	 0.000000	 0.047236
										CHANNELS 3 Zrotation Xrotation Yrotation
										JOINT LeftHandIndex3
										{
											OFFSET	-0.004284	-0.000551	 0.038166
											CHANNELS 3 Zrotation Xrotation Yrotation
											End Site
											{
												OFFSET	-0.004284	-0.000551	 0.038166
											}
										}
									}
								}
							}
						}
					}
				}
				JOINT Neck
				{
					OFFSET	 0.000000	 0.000000	 0.176489
					CHANNELS 3 Zrotation Xrotation Yrotation
					JOINT Head
					{
						OFFSET	 0.000000	-0.001747	 0.077940
						CHANNELS 3 Zrotation Xrotation Yrotation
						End Site
						{
							OFFSET	 0.000000	-0.001747	 0.077940
						}
					}
				}
				JOINT RightShoulder
				{
					OFFSET	-0.080363	 0.000306	 0.159706
					CHANNELS 3 Zrotation Xrotation Yrotation
					JOINT RightArm
					{
						OFFSET	 0.000000	 0.000000	 0.164196
						CHANNELS 3 Zrotation Xrotation Yrotation
						JOINT RightForeArm
						{
							OFFSET	 0.000000	 0.000000	 0.365611
							CHANNELS 3 Zrotation Xrotation Yrotation
							JOINT RightHand
							{
								OFFSET	 0.000000	 0.000000	 0.360648
								CHANNELS 3 Zrotation Xrotation Yrotation
								JOINT RightHandIndex1
								{
									OFFSET	 0.000000	 0.000000	 0.069977
									CHANNELS 3 Zrotation Xrotation Yrotation
									JOINT RightHandIndex2
									{
										OFFSET	 0.000000	 0.000000	 0.052305
										CHANNELS 3 Zrotation Xrotation Yrotation
										JOINT RightHandIndex3
										{
											OFFSET	 0.009002	-0.000782	 0.042196
											CHANNELS 3 Zrotation Xrotation Yrotation
											End Site
											{
												OFFSET	 0.009002	-0.000782	 0.042196
											}
										}
									}
								}
							}
						}
					}
				}
			}
		}
	}
}
MOTION
Frames:    5
Frame Time: 0.03333334
 0.010341	 0.025907	 1.199710	 5.085815	-1.353782	-3.584486	 11.737780	-9.266560	-174.384300	 0.967425	-38.661710	 0.384031	 64.492390	 82.962770	-68.312990	-2.369633	 31.576880	-0.069060	-17.722710	-33.154620	-175.752900	 10.239820	-48.713370	 8.308190	 6.534788	 73.902250	-1.168905	 2.358848	 33.018240	 0.103646	-4.469812	 8.718239	 0.937383	 1.342298	 3.252035	 2.849004	-7.949656	-2.911484	-3.654006	-93.951720	 58.951370	 175.361600	 10.151330	 27.004180	-45.365890	-4.450838	 0.070269	-2.120624	-2.422903	-20.169670	-8.455868	-4.870143	 19.242230	-2.790710	-3.878764	 21.508150	 2.199947	-4.806289	 5.568744	 0.145607	-0.072584	-5.079081	 0.185832	-9.832167	 1.785527	 2.072979	 89.775990	 61.651740	 179.985400	-20.082740	 53.303420	 6.915014	 1.586998	-2.138801	 17.639060	-3.379101	-5.670386	 0.703439	 6.292287	 24.715130	-0.538415	 1.904182	 44.549240	-7.009759	 0.551891	 24.163710	 3.555304
 0.008785	-0.007781	 1.197473	 5.599535	-0.904848	-3.610785	 11.190430	-7.794170	-174.882200	 1.186651	-38.087400	 0.514443	 72.357990	 83.824030	-76.262900	-2.368742	 31.723760	-0.072390	-19.617280	-34.955510	-177.032100	 10.049740	-43.440410	 7.478010	 2.749775	 73.525920	 2.370366	 2.358977	 32.998110	 0.103183	-7.751307	 8.419733	 0.865334	 1.227989	 3.401864	 2.893659	-8.050944	-3.088572	-3.676113	-94.077160	 58.975660	 175.090900	 8.885638	 25.040530	-45.667230	-6.472001	 0.221573	-3.064291	-3.157317	-21.203820	-9.383212	-4.866046	 19.348350	-2.797862	-3.871801	 21.597090	 2.192871	-4.804715	 5.587265	 0.144522	-0.045871	-5.099931	 0.221406	-9.834532	 1.767007	 1.985862	 89.727910	 61.736840	 179.870400	-19.944450	 54.408630	 5.190592	 2.898480	-1.665151	 18.985820	-2.708983	-6.278154	 0.630744	 6.280282	 23.833560	-0.547674	 2.009398	 43.679070	-7.103232	 0.738668	 23.336660	 3.462041
 0.005303	-0.077667	 1.190844	 6.309623	-0.025000	-3.866954	 10.382560	-4.319069	-175.769900	 1.473479	-36.282340	 0.663274	 93.694690	 85.189360	-97.654480	-2.366446	 32.097000	-0.080886	-22.433670	-36.306120	-179.558300	 9.526144	-30.141310	 5.205787	-2.328486	 70.669670	 6.496223	 2.360518	 32.769560	 0.097880	-13.774650	 7.747914	 0.917950	 1.000005	 3.797008	 2.952946	-8.220117	-3.429870	-3.721683	-94.302300	 58.988690	 174.609200	 6.476963	 21.606020	-46.210770	-10.596830	 0.682685	-4.861080	-4.875261	-23.376280	-10.396560	-4.852152	 19.675410	-2.813749	-3.854805	 21.813110	 2.175602	-4.797321	 5.674391	 0.139418	-0.011430	-5.158708	 0.292572	-9.869588	 1.726733	 1.891519	 89.604070	 61.907410	 179.571400	-19.323710	 56.236320	 2.659642	 4.993952	-0.496851	 19.529060	-1.726572	-7.386700	 0.146769	 6.249979	 21.923200	-0.597518	 2.201087	 42.016070	-7.272269	 1.162059	 21.417610	 3.259004
 0.001733	-0.131045	 1.181664	 6.566508	 0.510562	-4.215827	 10.080910	-1.397074	-176.413500	 1.604480	-34.928680	 0.716787	 116.158000	 85.786670	-120.071900	-2.361701	 32.831650	-0.097767	-22.942610	-38.303230	 179.056900	 9.440437	-23.611160	 4.121295	-2.200067	 72.892310	 5.334278	 2.356749	 33.323100	 0.110746	-18.480180	 7.188422	 1.134379	 0.875925	 4.293801	 2.952047	-8.298461	-3.688786	-3.732991	-94.433320	 58.972020	 174.332700	 4.892352	 19.817160	-46.652500	-14.231350	 1.243806	-6.345051	-6.712630	-25.057010	-10.719160	-4.834099	 20.053070	-2.821779	-3.834718	 22.066990	 2.155205	-4.780706	 5.869742	 0.127925	 0.011326	-5.239079	 0.333028	-9.886235	 1.673196	 1.833106	 89.489660	 62.015130	 179.293300	-18.292180	 57.235550	 0.810827	 6.401706	 0.499473	 19.764010	-1.134435	-8.425321	-0.773668	 6.213850	 19.962040	-0.672421	 2.420544	 39.979700	-7.463601	 1.586364	 19.433720	 3.067682
-0.002755	-0.184091	 1.169703	 6.765826	 0.709561	-4.503628	 9.770286	 1.942962	-177.231600	 1.750697	-33.444390	 0.770571	 136.142800	 86.195180	-139.981200	-2.349962	 34.477910	-0.136386	-22.660030	-42.220660	 178.057500	 9.760917	-22.613040	 4.083685	 0.889374	 77.562400	 1.252428	 2.344687	 34.944540	 0.149183	-22.962320	 6.968088	 1.325778	 0.771062	 4.643032	 2.946342	-8.319463	-3.905197	-3.734397	-94.509860	 58.933800	 174.176000	 3.431028	 18.776880	-47.044880	-17.413560	 1.937046	-7.751153	-8.799761	-26.653470	-11.557960	-4.831758	 20.365400	-2.900875	-3.809197	 22.387140	 2.129279	-4.751170	 6.215632	 0.107425	 0.058946	-5.333318	 0.349809	-9.834441	 1.652603	 1.663530	 89.401570	 62.022410	 179.080300	-16.829760	 57.915970	-1.552394	 7.700521	 1.523074	 20.586110	-0.403186	-9.821240	-1.815062	 6.178954	 17.786010	-0.710848	 2.692344	 37.243080	-7.696859	 2.034728	 17.273360	 2.879447
